<?xml version="1.0" encoding="UTF-8"?>
<!DOCTYPE svg PUBLIC "-//W3C//DTD SVG 1.1//EN" "http://www.w3.org/Graphics/SVG/1.1/DTD/svg11.dtd">
<svg xmlns="http://www.w3.org/2000/svg" version="1.1" width="500px" height="500px" style="shape-rendering:geometricPrecision; text-rendering:geometricPrecision; image-rendering:optimizeQuality; fill-rule:evenodd; clip-rule:evenodd" xmlns:xlink="http://www.w3.org/1999/xlink">
<g><path style="opacity:1" fill="#e5c07b" d="M 266.5,19.5 C 255.031,17.4802 244.031,18.8135 233.5,23.5C 235.7,21.3596 238.367,19.8596 241.5,19C 250.106,16.1839 258.439,16.3506 266.5,19.5 Z"/></g>
<g><path style="opacity:0.973" fill="#e6ba71" d="M 266.5,19.5 C 270.658,20.6718 274.325,22.6718 277.5,25.5C 273.978,24.6462 270.645,23.3129 267.5,21.5C 267.137,20.8165 266.804,20.1499 266.5,19.5 Z"/></g>
<g><path style="opacity:0.969" fill="#e9c180" d="M 233.5,23.5 C 231.1,26.9031 228.1,29.5698 224.5,31.5C 226.9,28.0969 229.9,25.4302 233.5,23.5 Z"/></g>
<g><path style="opacity:0.984" fill="#e7bf7e" d="M 277.5,25.5 C 279.833,27.1667 281.833,29.1667 283.5,31.5C 280.167,30.8333 278.167,28.8333 277.5,25.5 Z"/></g>
<g><path style="opacity:1" fill="#eaa939" d="M 266.5,19.5 C 266.804,20.1499 267.137,20.8165 267.5,21.5C 270.645,23.3129 273.978,24.6462 277.5,25.5C 278.167,28.8333 280.167,30.8333 283.5,31.5C 285.341,33.8485 286.674,36.5152 287.5,39.5C 288.315,43.1441 289.148,46.8107 290,50.5C 290.708,51.3805 291.542,52.0472 292.5,52.5C 295.064,55.2802 297.397,58.2802 299.5,61.5C 299.297,63.3904 299.963,64.8904 301.5,66C 305.009,67.7594 308.675,68.926 312.5,69.5C 312.833,69.5 313.167,69.5 313.5,69.5C 314.429,70.3149 315.429,71.1482 316.5,72C 324.634,72.9244 332.634,72.2578 340.5,70C 342.063,69.2411 343.063,68.0744 343.5,66.5C 347.544,64.6572 351.877,63.1572 356.5,62C 357.365,60.6412 358.365,59.4745 359.5,58.5C 364.844,58.334 370.177,58.5006 375.5,59C 378.536,61.0063 381.869,61.8396 385.5,61.5C 385.721,62.7348 386.388,63.7348 387.5,64.5C 386.473,67.0542 387.306,69.0542 390,70.5C 390.677,68.311 391.844,67.9776 393.5,69.5C 395.605,71.3429 396.772,73.6762 397,76.5C 397.333,76.1667 397.667,75.8333 398,75.5C 398.576,79.488 399.909,83.1546 402,86.5C 402.499,92.1569 402.666,97.8236 402.5,103.5C 400.226,108.54 399.226,113.873 399.5,119.5C 399.294,123.469 399.961,127.135 401.5,130.5C 403.07,133.314 404.403,136.314 405.5,139.5C 405.738,141.404 406.738,142.738 408.5,143.5C 410.5,145.167 412.5,146.833 414.5,148.5C 414.539,149.583 414.873,150.583 415.5,151.5C 424.851,156.504 434.851,158.504 445.5,157.5C 450.071,159.829 454.738,162.162 459.5,164.5C 462.833,165.833 465.167,168.167 466.5,171.5C 466.575,174.407 467.409,177.073 469,179.5C 469.671,180.252 470.504,180.586 471.5,180.5C 471.5,180.833 471.5,181.167 471.5,181.5C 472.498,188.138 472.665,194.805 472,201.5C 470.191,204.944 469.024,208.61 468.5,212.5C 467.557,215.109 465.89,217.109 463.5,218.5C 459.329,218.412 456.996,220.412 456.5,224.5C 454.393,226.727 452.06,228.727 449.5,230.5C 444.611,232.936 442.278,236.936 442.5,242.5C 441.883,242.611 441.383,242.944 441,243.5C 439.137,252.187 439.304,260.854 441.5,269.5C 442.808,272.421 444.808,274.754 447.5,276.5C 447.833,278.833 449.167,280.167 451.5,280.5C 451.751,282.17 452.418,283.67 453.5,285C 452.044,285.423 451.544,286.256 452,287.5C 453.796,286.233 455.629,286.233 457.5,287.5C 459.024,290.681 461.19,293.348 464,295.5C 464.483,296.448 464.649,297.448 464.5,298.5C 465.5,298.5 466.5,298.5 467.5,298.5C 468.424,303.456 469.091,308.456 469.5,313.5C 469.012,319.603 468.012,325.603 466.5,331.5C 465.66,333.853 464.326,335.853 462.5,337.5C 458.446,340.571 454.446,343.571 450.5,346.5C 447.206,346.259 444.206,347.092 441.5,349C 429.946,348.649 418.946,350.815 408.5,355.5C 406.995,356.842 406.328,358.508 406.5,360.5C 404.833,360.5 403.167,360.5 401.5,360.5C 401.5,362.167 401.5,363.833 401.5,365.5C 399.983,365.511 398.816,366.177 398,367.5C 396.451,370.312 395.618,373.312 395.5,376.5C 395.768,378.099 395.434,379.432 394.5,380.5C 393.883,380.611 393.383,380.944 393,381.5C 391.968,389.468 392.968,397.135 396,404.5C 397.539,412.802 396.206,420.469 392,427.5C 391.667,427.167 391.333,426.833 391,426.5C 390.667,427.833 390.333,429.167 390,430.5C 389.586,430.043 389.086,429.709 388.5,429.5C 387.833,431.5 387.167,433.5 386.5,435.5C 384.105,434.477 383.105,435.477 383.5,438.5C 382.167,438.5 380.833,438.5 379.5,438.5C 379.719,439.675 379.386,440.675 378.5,441.5C 376.089,442.361 374.089,443.694 372.5,445.5C 372.167,445.5 371.833,445.5 371.5,445.5C 364.172,446.739 356.838,446.739 349.5,445.5C 347.377,443.203 344.71,441.87 341.5,441.5C 340.738,439.738 339.404,438.738 337.5,438.5C 337.027,437.094 336.027,436.427 334.5,436.5C 334.027,435.094 333.027,434.427 331.5,434.5C 330.77,433.288 329.77,432.288 328.5,431.5C 317.746,430.088 307.08,430.421 296.5,432.5C 296.567,433.959 296.234,435.292 295.5,436.5C 294.564,437.974 293.23,438.974 291.5,439.5C 289.251,440.08 287.585,441.413 286.5,443.5C 285.5,443.5 284.5,443.5 283.5,443.5C 280.818,449.554 278.818,455.887 277.5,462.5C 277.5,462.833 277.5,463.167 277.5,463.5C 274.205,462.176 272.872,463.509 273.5,467.5C 272.5,467.5 271.5,467.5 270.5,467.5C 269.551,469.737 268.884,472.071 268.5,474.5C 268.167,474.5 267.833,474.5 267.5,474.5C 266.432,473.566 265.099,473.232 263.5,473.5C 263.5,474.5 263.5,475.5 263.5,476.5C 258.109,478.703 251.776,480.036 244.5,480.5C 239.009,478.935 233.342,477.935 227.5,477.5C 227.027,476.094 226.027,475.427 224.5,475.5C 219.85,471.229 217.517,465.896 217.5,459.5C 216.07,459.579 214.736,459.246 213.5,458.5C 212.05,453.771 210.05,449.437 207.5,445.5C 206.833,445.5 206.167,445.5 205.5,445.5C 204.167,443.5 202.833,441.5 201.5,439.5C 199.386,433.498 195.052,430.498 188.5,430.5C 188.047,429.542 187.381,428.708 186.5,428C 174.432,424.765 163.099,426.265 152.5,432.5C 151.558,432.392 150.725,432.059 150,431.5C 150,432.833 150,434.167 150,435.5C 147.537,436.032 145.703,437.366 144.5,439.5C 138.266,440.89 131.933,441.557 125.5,441.5C 125.167,441.5 124.833,441.5 124.5,441.5C 122.485,440.076 120.152,439.41 117.5,439.5C 117.67,438.178 117.337,437.011 116.5,436C 114.527,435.505 112.527,435.338 110.5,435.5C 109.415,433.413 107.749,432.08 105.5,431.5C 104.5,431.167 103.833,430.5 103.5,429.5C 100.764,425.68 98.7638,421.346 97.5,416.5C 96.8165,416.137 96.1499,415.804 95.5,415.5C 95.5,414.833 95.5,414.167 95.5,413.5C 95.2682,405.742 95.9349,398.076 97.5,390.5C 98.5585,389.4 99.3918,388.066 100,386.5C 100.667,380.5 100.667,374.5 100,368.5C 99.7767,366.119 98.61,364.453 96.5,363.5C 95.9744,361.77 94.9744,360.436 93.5,359.5C 91.9373,358.055 90.604,356.389 89.5,354.5C 89.7845,352.123 89.7845,349.956 89.5,348C 88.3284,347.647 87.1618,347.813 86,348.5C 82.7552,345.74 78.9219,344.406 74.5,344.5C 72.4352,344.483 70.4352,344.15 68.5,343.5C 68.0825,342.778 67.4158,342.278 66.5,342C 62.1794,341.501 57.8461,341.334 53.5,341.5C 53.5858,340.504 53.2524,339.671 52.5,339C 47.9996,338.75 44.333,336.917 41.5,333.5C 39.5891,332.523 37.5891,331.857 35.5,331.5C 34.8645,329.205 33.5311,327.539 31.5,326.5C 29.3754,323.912 28.0421,320.912 27.5,317.5C 26.24,309.504 26.24,301.504 27.5,293.5C 28.4097,290.008 30.0764,287.008 32.5,284.5C 35.1667,282.5 37.5,280.167 39.5,277.5C 41.7488,276.92 43.4154,275.587 44.5,273.5C 47.8781,272.122 50.2114,269.789 51.5,266.5C 52.9063,266.027 53.573,265.027 53.5,263.5C 55.6139,262.093 57.1139,260.093 58,257.5C 58.4974,254.854 58.6641,252.187 58.5,249.5C 59.162,247.696 59.4954,245.696 59.5,243.5C 59.7135,240.473 59.0468,237.807 57.5,235.5C 57.5,235.167 57.5,234.833 57.5,234.5C 57.0203,229.04 55.0203,224.207 51.5,220C 50.552,219.517 49.552,219.351 48.5,219.5C 47.8333,216.833 46.1667,215.167 43.5,214.5C 41.5956,214.262 40.2623,213.262 39.5,211.5C 39.1667,209.167 37.8333,207.833 35.5,207.5C 34.6328,203.776 33.4662,200.109 32,196.5C 31.2917,195.619 30.4584,194.953 29.5,194.5C 29.0622,186.353 29.7289,178.353 31.5,170.5C 31.5,170.167 31.5,169.833 31.5,169.5C 35.2659,167.271 37.5992,163.938 38.5,159.5C 41.7915,157.542 44.7915,155.209 47.5,152.5C 50.6489,152.585 53.3155,151.585 55.5,149.5C 67.3287,151.105 78.662,149.272 89.5,144C 90.305,142.887 90.9717,141.721 91.5,140.5C 94.1004,139.081 96.6004,137.415 99,135.5C 99.49,134.207 99.6567,132.873 99.5,131.5C 100.496,131.586 101.329,131.252 102,130.5C 102.977,128.26 103.477,125.927 103.5,123.5C 104.496,123.586 105.329,123.252 106,122.5C 106.667,115.833 106.667,109.167 106,102.5C 104.811,100.767 103.644,99.1002 102.5,97.5C 102.578,90.485 102.911,83.485 103.5,76.5C 106.472,74.2219 108.139,71.2219 108.5,67.5C 110.262,66.7377 111.262,65.4044 111.5,63.5C 112.873,63.6567 114.207,63.49 115.5,63C 116.257,61.4878 117.257,60.1545 118.5,59C 129.301,53.0591 140.635,51.8924 152.5,55.5C 152.833,55.5 153.167,55.5 153.5,55.5C 156.418,58.1652 159.418,60.8319 162.5,63.5C 171.712,69.0252 181.379,70.3585 191.5,67.5C 191.833,67.5 192.167,67.5 192.5,67.5C 196.866,68.2509 200.199,66.9176 202.5,63.5C 205.226,63.7361 207.559,62.9028 209.5,61C 210.723,58.056 212.556,55.556 215,53.5C 215.483,52.552 215.649,51.552 215.5,50.5C 216.825,49.0474 217.658,49.3808 218,51.5C 220.017,46.7529 221.183,41.7529 221.5,36.5C 222.906,36.0269 223.573,35.0269 223.5,33.5C 223.328,32.5084 223.662,31.8417 224.5,31.5C 228.1,29.5698 231.1,26.9031 233.5,23.5C 244.031,18.8135 255.031,17.4802 266.5,19.5 Z"/></g>
<g><path style="opacity:0.435" fill="#f7ddb3" d="M 223.5,33.5 C 223.573,35.0269 222.906,36.0269 221.5,36.5C 221.427,34.9731 222.094,33.9731 223.5,33.5 Z"/></g>
<g><path style="opacity:0.984" fill="#e6c083" d="M 287.5,39.5 C 289.734,43.5225 291.401,47.8558 292.5,52.5C 291.542,52.0472 290.708,51.3805 290,50.5C 289.148,46.8107 288.315,43.1441 287.5,39.5 Z"/></g>
<g><path style="opacity:1" fill="#eaba6e" d="M 221.5,36.5 C 221.183,41.7529 220.017,46.7529 218,51.5C 217.658,49.3808 216.825,49.0474 215.5,50.5C 217.316,45.7087 219.316,41.042 221.5,36.5 Z"/></g>
<g><path style="opacity:0.996" fill="#e7c27b" d="M 152.5,55.5 C 140.635,51.8924 129.301,53.0591 118.5,59C 117.257,60.1545 116.257,61.4878 115.5,63C 114.207,63.49 112.873,63.6567 111.5,63.5C 123.477,51.6727 137.143,49.006 152.5,55.5 Z"/></g>
<g><path style="opacity:1" fill="#eac37d" d="M 385.5,61.5 C 381.869,61.8396 378.536,61.0063 375.5,59C 370.177,58.5006 364.844,58.334 359.5,58.5C 368.553,55.5721 377.219,56.5721 385.5,61.5 Z"/></g>
<g><path style="opacity:1" fill="#e6bd76" d="M 215.5,50.5 C 215.649,51.552 215.483,52.552 215,53.5C 212.556,55.556 210.723,58.056 209.5,61C 207.559,62.9028 205.226,63.7361 202.5,63.5C 204.647,61.5305 206.98,59.6971 209.5,58C 211.364,55.3123 213.364,52.8123 215.5,50.5 Z"/></g>
<g><path style="opacity:0.824" fill="#f2d8a7" d="M 111.5,63.5 C 111.262,65.4044 110.262,66.7377 108.5,67.5C 108.738,65.5956 109.738,64.2623 111.5,63.5 Z"/></g>
<g><path style="opacity:0.973" fill="#e5bd73" d="M 153.5,55.5 C 159.336,59.1445 165.336,62.6445 171.5,66C 178.053,68.4773 184.72,68.9773 191.5,67.5C 181.379,70.3585 171.712,69.0252 162.5,63.5C 159.418,60.8319 156.418,58.1652 153.5,55.5 Z"/></g>
<g><path style="opacity:1" fill="#e5b664" d="M 359.5,58.5 C 358.365,59.4745 357.365,60.6412 356.5,62C 351.877,63.1572 347.544,64.6572 343.5,66.5C 347.984,62.2579 353.318,59.5912 359.5,58.5 Z"/></g>
<g><path style="opacity:1" fill="#e8b972" d="M 202.5,63.5 C 200.199,66.9176 196.866,68.2509 192.5,67.5C 195.678,65.9914 199.011,64.658 202.5,63.5 Z"/></g>
<g><path style="opacity:1" fill="#eabb71" d="M 299.5,61.5 C 303.702,64.4317 308.035,67.0984 312.5,69.5C 308.675,68.926 305.009,67.7594 301.5,66C 299.963,64.8904 299.297,63.3904 299.5,61.5 Z"/></g>
<g><path style="opacity:1" fill="#e6b96d" d="M 108.5,67.5 C 108.139,71.2219 106.472,74.2219 103.5,76.5C 103.94,72.7485 105.607,69.7485 108.5,67.5 Z"/></g>
<g><path style="opacity:0.929" fill="#e4bb72" d="M 343.5,66.5 C 343.063,68.0744 342.063,69.2411 340.5,70C 332.634,72.2578 324.634,72.9244 316.5,72C 315.429,71.1482 314.429,70.3149 313.5,69.5C 323.889,72.4355 333.889,71.4355 343.5,66.5 Z"/></g>
<g><path style="opacity:1" fill="#e5ae4f" d="M 385.5,61.5 C 393.641,65.6398 399.308,71.9731 402.5,80.5C 403.358,88.1322 403.691,95.7989 403.5,103.5C 403.167,103.5 402.833,103.5 402.5,103.5C 402.666,97.8236 402.499,92.1569 402,86.5C 399.909,83.1546 398.576,79.488 398,75.5C 397.667,75.8333 397.333,76.1667 397,76.5C 396.772,73.6762 395.605,71.3429 393.5,69.5C 391.844,67.9776 390.677,68.311 390,70.5C 387.306,69.0542 386.473,67.0542 387.5,64.5C 386.388,63.7348 385.721,62.7348 385.5,61.5 Z"/></g>
<g><path style="opacity:0.965" fill="#e6bc73" d="M 103.5,76.5 C 102.911,83.485 102.578,90.485 102.5,97.5C 101.836,94.8541 101.502,92.0208 101.5,89C 101.326,84.5578 101.993,80.3911 103.5,76.5 Z"/></g>
<g><path style="opacity:0.988" fill="#ebc583" d="M 402.5,80.5 C 405.956,88.0507 406.289,95.7174 403.5,103.5C 403.691,95.7989 403.358,88.1322 402.5,80.5 Z"/></g>
<g><path style="opacity:0.984" fill="#e7bd71" d="M 102.5,97.5 C 103.644,99.1002 104.811,100.767 106,102.5C 106.667,109.167 106.667,115.833 106,122.5C 105.329,123.252 104.496,123.586 103.5,123.5C 105.077,114.737 104.743,106.07 102.5,97.5 Z"/></g>
<g><path style="opacity:1" fill="#fe863a" d="M 303.5,117.5 C 304.031,119.624 305.365,121.124 307.5,122C 315.71,124.393 323.376,127.893 330.5,132.5C 330.5,133.833 330.5,135.167 330.5,136.5C 334.98,136.985 337.98,139.319 339.5,143.5C 343.127,143.621 345.46,145.455 346.5,149C 350.002,149.174 351.835,151.007 352,154.5C 353.667,155.5 355.333,156.5 357,157.5C 359.958,161.649 362.625,165.982 365,170.5C 366.75,172.424 368.583,174.091 370.5,175.5C 377.287,183.129 381.621,192.129 383.5,202.5C 385.066,209.786 387.066,216.786 389.5,223.5C 390.185,225.414 390.685,227.414 391,229.5C 391.972,245.581 391.472,261.581 389.5,277.5C 388.504,277.414 387.671,277.748 387,278.5C 386.909,284.774 385.575,290.774 383,296.5C 380.104,299.454 378.771,303.121 379,307.5C 375.411,315.013 371.578,322.346 367.5,329.5C 364.865,332.079 362.699,335.079 361,338.5C 358.63,341.039 356.13,343.372 353.5,345.5C 352.5,345.5 351.5,345.5 350.5,345.5C 350.649,346.552 350.483,347.552 350,348.5C 349.667,348.167 349.333,347.833 349,347.5C 348.316,349.359 347.316,351.026 346,352.5C 343.207,355.869 339.874,358.536 336,360.5C 335.517,361.448 335.351,362.448 335.5,363.5C 330.405,366.324 325.071,368.657 319.5,370.5C 319.5,371.5 319.5,372.5 319.5,373.5C 316.003,373.294 313.337,374.628 311.5,377.5C 308.921,379.025 306.254,380.359 303.5,381.5C 295.359,383.699 287.359,386.199 279.5,389C 262.907,391.351 246.24,392.018 229.5,391C 221.333,387.936 213,385.936 204.5,385C 199.007,382.248 193.34,380.082 187.5,378.5C 180.146,374.134 172.813,369.801 165.5,365.5C 160.697,360.171 155.53,355.171 150,350.5C 149.667,349.5 149.333,348.5 149,347.5C 142.894,343.172 138.56,337.506 136,330.5C 133.35,327.684 130.516,325.018 127.5,322.5C 121.432,311.692 116.432,300.359 112.5,288.5C 112.167,287.833 111.833,287.167 111.5,286.5C 109.728,274.095 108.728,261.595 108.5,249C 109.753,237.549 110.753,226.049 111.5,214.5C 116.154,194.523 124.82,176.523 137.5,160.5C 141.187,157.145 144.853,153.811 148.5,150.5C 153.383,146.645 158.383,142.812 163.5,139C 164.965,137.226 166.298,135.392 167.5,133.5C 175.295,128.628 183.295,124.295 191.5,120.5C 194.199,120.534 196.699,119.867 199,118.5C 199.333,118.833 199.667,119.167 200,119.5C 201.008,117.741 202.508,116.574 204.5,116C 207.167,115.667 209.833,115.333 212.5,115C 213.09,113.701 214.09,112.868 215.5,112.5C 230.287,108.874 245.287,107.708 260.5,109C 269.186,110.102 277.853,111.268 286.5,112.5C 286.351,113.552 286.517,114.552 287,115.5C 288.628,114.903 290.295,115.237 292,116.5C 293.073,115.72 294.24,115.887 295.5,117C 298.146,117.497 300.813,117.664 303.5,117.5 Z"/></g>
<g><path style="opacity:1" fill="#f88f38" d="M 303.5,117.5 C 300.813,117.664 298.146,117.497 295.5,117C 294.24,115.887 293.073,115.72 292,116.5C 290.295,115.237 288.628,114.903 287,115.5C 286.517,114.552 286.351,113.552 286.5,112.5C 277.853,111.268 269.186,110.102 260.5,109C 245.287,107.708 230.287,108.874 215.5,112.5C 214.09,112.868 213.09,113.701 212.5,115C 209.833,115.333 207.167,115.667 204.5,116C 202.508,116.574 201.008,117.741 200,119.5C 199.667,119.167 199.333,118.833 199,118.5C 196.699,119.867 194.199,120.534 191.5,120.5C 191.369,119.624 191.702,118.957 192.5,118.5C 204.756,112.572 217.756,109.072 231.5,108C 244.833,107.333 258.167,107.333 271.5,108C 276.585,108.584 281.585,109.584 286.5,111C 286.957,111.414 287.291,111.914 287.5,112.5C 293.309,112.994 298.643,114.661 303.5,117.5 Z"/></g>
<g><path style="opacity:0.886" fill="#e6c180" d="M 402.5,103.5 C 402.833,103.5 403.167,103.5 403.5,103.5C 400.569,112.336 399.903,121.336 401.5,130.5C 399.961,127.135 399.294,123.469 399.5,119.5C 399.226,113.873 400.226,108.54 402.5,103.5 Z"/></g>
<g><path style="opacity:1" fill="#e3c484" d="M 103.5,123.5 C 103.477,125.927 102.977,128.26 102,130.5C 101.329,131.252 100.496,131.586 99.5,131.5C 100.472,128.563 101.805,125.897 103.5,123.5 Z"/></g>
<g><path style="opacity:1" fill="#f59338" d="M 191.5,120.5 C 183.295,124.295 175.295,128.628 167.5,133.5C 174.084,126.59 182.084,122.257 191.5,120.5 Z"/></g>
<g><path style="opacity:0.965" fill="#e9c07b" d="M 99.5,131.5 C 99.6567,132.873 99.49,134.207 99,135.5C 96.6004,137.415 94.1004,139.081 91.5,140.5C 94.1954,137.474 96.8621,134.474 99.5,131.5 Z"/></g>
<g><path style="opacity:1" fill="#f2a13b" d="M 303.5,117.5 C 308.176,119.726 313.176,121.392 318.5,122.5C 319.554,122.32 320.554,121.987 321.5,121.5C 323.615,124.946 326.615,127.279 330.5,128.5C 331.086,128.291 331.586,127.957 332,127.5C 333.552,132.715 337.052,135.882 342.5,137C 345.051,140.044 347.384,143.211 349.5,146.5C 343.185,141.858 336.852,137.191 330.5,132.5C 323.376,127.893 315.71,124.393 307.5,122C 305.365,121.124 304.031,119.624 303.5,117.5 Z"/></g>
<g><path style="opacity:1" fill="#f98f37" d="M 167.5,133.5 C 166.298,135.392 164.965,137.226 163.5,139C 158.383,142.812 153.383,146.645 148.5,150.5C 150.531,146.289 153.198,142.456 156.5,139C 160.303,137.345 163.97,135.511 167.5,133.5 Z"/></g>
<g><path style="opacity:0.82" fill="#ebce97" d="M 405.5,139.5 C 407.262,140.262 408.262,141.596 408.5,143.5C 406.738,142.738 405.738,141.404 405.5,139.5 Z"/></g>
<g><path style="opacity:0.988" fill="#e6be75" d="M 91.5,140.5 C 90.9717,141.721 90.305,142.887 89.5,144C 78.662,149.272 67.3287,151.105 55.5,149.5C 62.3539,147.887 69.3539,147.054 76.5,147C 81.9528,145.689 86.9528,143.523 91.5,140.5 Z"/></g>
<g><path style="opacity:0.996" fill="#e5bc7b" d="M 55.5,149.5 C 53.3155,151.585 50.6489,152.585 47.5,152.5C 49.6845,150.415 52.3511,149.415 55.5,149.5 Z"/></g>
<g><path style="opacity:0.996" fill="#ebc689" d="M 414.5,148.5 C 417.351,150.505 420.351,152.338 423.5,154C 430.894,155.698 438.228,156.865 445.5,157.5C 434.851,158.504 424.851,156.504 415.5,151.5C 414.873,150.583 414.539,149.583 414.5,148.5 Z"/></g>
<g><path style="opacity:0.878" fill="#e6c282" d="M 47.5,152.5 C 44.7915,155.209 41.7915,157.542 38.5,159.5C 40.6367,156.027 43.6367,153.694 47.5,152.5 Z"/></g>
<g><path style="opacity:1" fill="#f59138" d="M 330.5,132.5 C 336.852,137.191 343.185,141.858 349.5,146.5C 354.22,151.382 358.72,156.382 363,161.5C 364.038,166.086 366.372,169.752 370,172.5C 370.483,173.448 370.649,174.448 370.5,175.5C 368.583,174.091 366.75,172.424 365,170.5C 362.625,165.982 359.958,161.649 357,157.5C 355.333,156.5 353.667,155.5 352,154.5C 351.835,151.007 350.002,149.174 346.5,149C 345.46,145.455 343.127,143.621 339.5,143.5C 337.98,139.319 334.98,136.985 330.5,136.5C 330.5,135.167 330.5,133.833 330.5,132.5 Z"/></g>
<g><path style="opacity:0.994" fill="#e9c181" d="M 445.5,157.5 C 451.033,158.266 455.699,160.6 459.5,164.5C 454.738,162.162 450.071,159.829 445.5,157.5 Z"/></g>
<g><path style="opacity:1" fill="#e7c17a" d="M 38.5,159.5 C 37.5992,163.938 35.2659,167.271 31.5,169.5C 32.8514,165.458 35.1848,162.125 38.5,159.5 Z"/></g>
<g><path style="opacity:1" fill="#e5ba6f" d="M 466.5,171.5 C 468.924,174.008 470.59,177.008 471.5,180.5C 470.504,180.586 469.671,180.252 469,179.5C 467.409,177.073 466.575,174.407 466.5,171.5 Z"/></g>
<g><path style="opacity:0.979" fill="#e6c588" d="M 31.5,170.5 C 29.7289,178.353 29.0622,186.353 29.5,194.5C 26.678,186.241 27.3447,178.241 31.5,170.5 Z"/></g>
<g><path style="opacity:1" fill="#e6bd6f" d="M 29.5,194.5 C 30.4584,194.953 31.2917,195.619 32,196.5C 33.4662,200.109 34.6328,203.776 35.5,207.5C 32.1715,203.839 30.1715,199.506 29.5,194.5 Z"/></g>
<g><path style="opacity:0.953" fill="#ebcd8f" d="M 35.5,207.5 C 37.8333,207.833 39.1667,209.167 39.5,211.5C 37.8333,210.5 36.5,209.167 35.5,207.5 Z"/></g>
<g><path style="opacity:1" fill="#e9c27d" d="M 471.5,181.5 C 475.657,192.255 474.657,202.588 468.5,212.5C 469.024,208.61 470.191,204.944 472,201.5C 472.665,194.805 472.498,188.138 471.5,181.5 Z"/></g>
<g><path style="opacity:0.992" fill="#f0cd92" d="M 43.5,214.5 C 46.1667,215.167 47.8333,216.833 48.5,219.5C 46.5,218.167 44.8333,216.5 43.5,214.5 Z"/></g>
<g><path style="opacity:1" fill="#f59939" d="M 383.5,202.5 C 385.776,202.756 386.943,204.09 387,206.5C 388.157,212.132 388.991,217.798 389.5,223.5C 387.066,216.786 385.066,209.786 383.5,202.5 Z"/></g>
<g><path style="opacity:1" fill="#e6bf7b" d="M 463.5,218.5 C 461.761,221.243 459.427,223.243 456.5,224.5C 456.996,220.412 459.329,218.412 463.5,218.5 Z"/></g>
<g><path style="opacity:0.969" fill="#e8bd7c" d="M 48.5,219.5 C 49.552,219.351 50.552,219.517 51.5,220C 55.0203,224.207 57.0203,229.04 57.5,234.5C 55.296,229.104 52.296,224.104 48.5,219.5 Z"/></g>
<g><path style="opacity:0.992" fill="#e7c37c" d="M 449.5,230.5 C 447.163,234.508 444.83,238.508 442.5,242.5C 442.278,236.936 444.611,232.936 449.5,230.5 Z"/></g>
<g><path style="opacity:1" fill="#f78f37" d="M 111.5,214.5 C 110.753,226.049 109.753,237.549 108.5,249C 108.728,261.595 109.728,274.095 111.5,286.5C 110.475,282.921 109.309,279.254 108,275.5C 107.167,260.822 107.334,246.155 108.5,231.5C 109.116,225.624 110.116,219.958 111.5,214.5 Z"/></g>
<g><path style="opacity:0.659" fill="#e4c386" d="M 57.5,235.5 C 59.0468,237.807 59.7135,240.473 59.5,243.5C 59.4954,245.696 59.162,247.696 58.5,249.5C 58.6469,244.786 58.3136,240.119 57.5,235.5 Z"/></g>
<g><path style="opacity:1" fill="#e5bc72" d="M 58.5,249.5 C 58.6641,252.187 58.4974,254.854 58,257.5C 57.1139,260.093 55.6139,262.093 53.5,263.5C 55.5923,258.884 57.2589,254.217 58.5,249.5 Z"/></g>
<g><path style="opacity:0.498" fill="#f1d5a4" d="M 53.5,263.5 C 53.573,265.027 52.9063,266.027 51.5,266.5C 51.427,264.973 52.0937,263.973 53.5,263.5 Z"/></g>
<g><path style="opacity:1" fill="#e3b96a" d="M 442.5,242.5 C 439.504,254.528 441.171,265.861 447.5,276.5C 444.808,274.754 442.808,272.421 441.5,269.5C 439.304,260.854 439.137,252.187 441,243.5C 441.383,242.944 441.883,242.611 442.5,242.5 Z"/></g>
<g><path style="opacity:0.875" fill="#e8c686" d="M 51.5,266.5 C 50.2114,269.789 47.8781,272.122 44.5,273.5C 46.5,270.833 48.8333,268.5 51.5,266.5 Z"/></g>
<g><path style="opacity:0.973" fill="#ebc98b" d="M 44.5,273.5 C 43.4154,275.587 41.7488,276.92 39.5,277.5C 40.5846,275.413 42.2512,274.08 44.5,273.5 Z"/></g>
<g><path style="opacity:0.969" fill="#ecc78e" d="M 447.5,276.5 C 449.167,277.5 450.5,278.833 451.5,280.5C 449.167,280.167 447.833,278.833 447.5,276.5 Z"/></g>
<g><path style="opacity:0.902" fill="#eac88b" d="M 39.5,277.5 C 37.5,280.167 35.1667,282.5 32.5,284.5C 33.8333,281.167 36.1667,278.833 39.5,277.5 Z"/></g>
<g><path style="opacity:1" fill="#e4b359" d="M 451.5,280.5 C 458.626,284.957 463.96,290.957 467.5,298.5C 466.5,298.5 465.5,298.5 464.5,298.5C 464.649,297.448 464.483,296.448 464,295.5C 461.19,293.348 459.024,290.681 457.5,287.5C 455.629,286.233 453.796,286.233 452,287.5C 451.544,286.256 452.044,285.423 453.5,285C 452.418,283.67 451.751,282.17 451.5,280.5 Z"/></g>
<g><path style="opacity:0.876" fill="#e9c180" d="M 27.5,293.5 C 26.24,301.504 26.24,309.504 27.5,317.5C 26.1368,313.706 25.1368,309.706 24.5,305.5C 25.1368,301.294 26.1368,297.294 27.5,293.5 Z"/></g>
<g><path style="opacity:0.999" fill="#e4ba71" d="M 467.5,298.5 C 473.032,309.658 472.699,320.658 466.5,331.5C 468.012,325.603 469.012,319.603 469.5,313.5C 469.091,308.456 468.424,303.456 467.5,298.5 Z"/></g>
<g><path style="opacity:1" fill="#f1a23a" d="M 112.5,288.5 C 116.432,300.359 121.432,311.692 127.5,322.5C 129.167,325.5 130.833,328.5 132.5,331.5C 129.211,328.388 125.711,325.388 122,322.5C 121.517,321.552 121.351,320.552 121.5,319.5C 120.325,319.719 119.325,319.386 118.5,318.5C 119.611,317.389 120.278,316.055 120.5,314.5C 117.602,309.494 115.269,304.161 113.5,298.5C 112.513,295.232 112.18,291.898 112.5,288.5 Z"/></g>
<g><path style="opacity:1" fill="#f49c3a" d="M 389.5,277.5 C 385.619,294.851 379.619,311.518 371.5,327.5C 370.234,328.362 368.901,329.029 367.5,329.5C 371.578,322.346 375.411,315.013 379,307.5C 378.771,303.121 380.104,299.454 383,296.5C 385.575,290.774 386.909,284.774 387,278.5C 387.671,277.748 388.504,277.414 389.5,277.5 Z"/></g>
<g><path style="opacity:0.988" fill="#eed297" d="M 31.5,326.5 C 33.5311,327.539 34.8645,329.205 35.5,331.5C 33.457,330.421 32.1237,328.754 31.5,326.5 Z"/></g>
<g><path style="opacity:1" fill="#e6b667" d="M 35.5,331.5 C 37.5891,331.857 39.5891,332.523 41.5,333.5C 44.333,336.917 47.9996,338.75 52.5,339C 53.2524,339.671 53.5858,340.504 53.5,341.5C 46.2932,340.232 40.2932,336.899 35.5,331.5 Z"/></g>
<g><path style="opacity:1" fill="#f59338" d="M 127.5,322.5 C 130.516,325.018 133.35,327.684 136,330.5C 138.56,337.506 142.894,343.172 149,347.5C 149.333,348.5 149.667,349.5 150,350.5C 155.53,355.171 160.697,360.171 165.5,365.5C 162.804,363.73 159.971,362.064 157,360.5C 153.015,356.015 148.849,351.682 144.5,347.5C 143.719,346.271 143.219,344.938 143,343.5C 139.264,339.686 135.764,335.686 132.5,331.5C 130.833,328.5 129.167,325.5 127.5,322.5 Z"/></g>
<g><path style="opacity:0.831" fill="#e7c384" d="M 462.5,337.5 C 459.729,342.231 455.729,345.564 450.5,347.5C 450.5,347.167 450.5,346.833 450.5,346.5C 454.446,343.571 458.446,340.571 462.5,337.5 Z"/></g>
<g><path style="opacity:0.973" fill="#e5c387" d="M 53.5,341.5 C 57.8461,341.334 62.1794,341.501 66.5,342C 67.4158,342.278 68.0825,342.778 68.5,343.5C 63.3196,343.153 58.3196,342.487 53.5,341.5 Z"/></g>
<g><path style="opacity:1" fill="#e8b45b" d="M 74.5,344.5 C 78.9219,344.406 82.7552,345.74 86,348.5C 87.1618,347.813 88.3284,347.647 89.5,348C 89.7845,349.956 89.7845,352.123 89.5,354.5C 84.9455,350.397 79.9455,347.064 74.5,344.5 Z"/></g>
<g><path style="opacity:1" fill="#e8be73" d="M 450.5,346.5 C 450.5,346.833 450.5,347.167 450.5,347.5C 446.798,349.566 442.798,350.733 438.5,351C 426.379,349.655 415.713,352.821 406.5,360.5C 406.328,358.508 406.995,356.842 408.5,355.5C 418.946,350.815 429.946,348.649 441.5,349C 444.206,347.092 447.206,346.259 450.5,346.5 Z"/></g>
<g><path style="opacity:0.416" fill="#f3dcaa" d="M 93.5,359.5 C 94.9744,360.436 95.9744,361.77 96.5,363.5C 96.5,364.167 96.5,364.833 96.5,365.5C 94.9925,363.819 93.9925,361.819 93.5,359.5 Z"/></g>
<g><path style="opacity:1" fill="#edc17e" d="M 406.5,360.5 C 404.614,361.93 402.947,363.597 401.5,365.5C 401.5,363.833 401.5,362.167 401.5,360.5C 403.167,360.5 404.833,360.5 406.5,360.5 Z"/></g>
<g><path style="opacity:0.992" fill="#e5c078" d="M 401.5,365.5 C 399.216,369.073 397.216,372.74 395.5,376.5C 395.618,373.312 396.451,370.312 398,367.5C 398.816,366.177 399.983,365.511 401.5,365.5 Z"/></g>
<g><path style="opacity:1" fill="#f5963a" d="M 353.5,345.5 C 352.199,346.882 351.366,348.548 351,350.5C 349.795,351.071 348.628,351.738 347.5,352.5C 344.038,356.135 340.705,359.968 337.5,364C 336.167,364.333 334.833,364.667 333.5,365C 327.263,371.131 319.929,375.298 311.5,377.5C 313.337,374.628 316.003,373.294 319.5,373.5C 319.5,372.5 319.5,371.5 319.5,370.5C 325.071,368.657 330.405,366.324 335.5,363.5C 335.351,362.448 335.517,361.448 336,360.5C 339.874,358.536 343.207,355.869 346,352.5C 347.316,351.026 348.316,349.359 349,347.5C 349.333,347.833 349.667,348.167 350,348.5C 350.483,347.552 350.649,346.552 350.5,345.5C 351.5,345.5 352.5,345.5 353.5,345.5 Z"/></g>
<g><path style="opacity:0.994" fill="#e8b96e" d="M 96.5,363.5 C 98.61,364.453 99.7767,366.119 100,368.5C 100.667,374.5 100.667,380.5 100,386.5C 99.3918,388.066 98.5585,389.4 97.5,390.5C 99.0708,382.07 98.7375,373.737 96.5,365.5C 96.5,364.833 96.5,364.167 96.5,363.5 Z"/></g>
<g><path style="opacity:1" fill="#efa43c" d="M 187.5,378.5 C 193.34,380.082 199.007,382.248 204.5,385C 213,385.936 221.333,387.936 229.5,391C 246.24,392.018 262.907,391.351 279.5,389C 287.359,386.199 295.359,383.699 303.5,381.5C 298.062,385.487 292.228,389.154 286,392.5C 284.43,391.642 282.763,390.975 281,390.5C 273.885,391.693 266.719,392.526 259.5,393C 260.451,393.718 260.617,394.551 260,395.5C 251.504,394.303 242.67,394.303 233.5,395.5C 233.5,394.5 233.5,393.5 233.5,392.5C 230.482,392.665 227.482,392.498 224.5,392C 223.833,391.333 223.167,390.667 222.5,390C 216.011,388.037 209.344,387.037 202.5,387C 197.123,384.779 192.123,381.946 187.5,378.5 Z"/></g>
<g><path style="opacity:0.925" fill="#e2be81" d="M 97.5,390.5 C 95.9349,398.076 95.2682,405.742 95.5,413.5C 94.3493,408.35 94.1826,403.016 95,397.5C 95.3903,394.896 96.2237,392.562 97.5,390.5 Z"/></g>
<g><path style="opacity:1" fill="#e9bd73" d="M 394.5,380.5 C 394.334,384.846 394.501,389.179 395,393.5C 401.541,410.8 398.374,425.967 385.5,439C 381.392,441.721 377.059,443.887 372.5,445.5C 374.089,443.694 376.089,442.361 378.5,441.5C 379.386,440.675 379.719,439.675 379.5,438.5C 380.833,438.5 382.167,438.5 383.5,438.5C 383.105,435.477 384.105,434.477 386.5,435.5C 387.167,433.5 387.833,431.5 388.5,429.5C 389.086,429.709 389.586,430.043 390,430.5C 390.333,429.167 390.667,427.833 391,426.5C 391.333,426.833 391.667,427.167 392,427.5C 396.206,420.469 397.539,412.802 396,404.5C 392.968,397.135 391.968,389.468 393,381.5C 393.383,380.944 393.883,380.611 394.5,380.5 Z"/></g>
<g><path style="opacity:1" fill="#e9c27c" d="M 95.5,415.5 C 96.1499,415.804 96.8165,416.137 97.5,416.5C 98.7638,421.346 100.764,425.68 103.5,429.5C 99.3063,425.788 96.6396,421.121 95.5,415.5 Z"/></g>
<g><path style="opacity:0.996" fill="#e8bc72" d="M 188.5,430.5 C 181.305,427.688 173.971,427.188 166.5,429C 158.729,431.72 151.395,435.22 144.5,439.5C 145.703,437.366 147.537,436.032 150,435.5C 150,434.167 150,432.833 150,431.5C 150.725,432.059 151.558,432.392 152.5,432.5C 163.099,426.265 174.432,424.765 186.5,428C 187.381,428.708 188.047,429.542 188.5,430.5 Z"/></g>
<g><path style="opacity:1" fill="#ecbf75" d="M 331.5,434.5 C 319.151,429.991 307.151,430.657 295.5,436.5C 296.234,435.292 296.567,433.959 296.5,432.5C 307.08,430.421 317.746,430.088 328.5,431.5C 329.77,432.288 330.77,433.288 331.5,434.5 Z"/></g>
<g><path style="opacity:0.961" fill="#ebcd92" d="M 105.5,431.5 C 107.749,432.08 109.415,433.413 110.5,435.5C 108.251,434.92 106.585,433.587 105.5,431.5 Z"/></g>
<g><path style="opacity:1" fill="#e8bc6e" d="M 188.5,430.5 C 195.052,430.498 199.386,433.498 201.5,439.5C 197.398,436.048 193.065,433.048 188.5,430.5 Z"/></g>
<g><path style="opacity:0.557" fill="#f2d69a" d="M 331.5,434.5 C 333.027,434.427 334.027,435.094 334.5,436.5C 332.973,436.573 331.973,435.906 331.5,434.5 Z"/></g>
<g><path style="opacity:1" fill="#e8b767" d="M 110.5,435.5 C 112.527,435.338 114.527,435.505 116.5,436C 117.337,437.011 117.67,438.178 117.5,439.5C 114.669,438.921 112.336,437.588 110.5,435.5 Z"/></g>
<g><path style="opacity:0.659" fill="#f5cf9f" d="M 334.5,436.5 C 336.027,436.427 337.027,437.094 337.5,438.5C 335.973,438.573 334.973,437.906 334.5,436.5 Z"/></g>
<g><path style="opacity:0.976" fill="#e9ce94" d="M 117.5,439.5 C 120.152,439.41 122.485,440.076 124.5,441.5C 121.848,441.59 119.515,440.924 117.5,439.5 Z"/></g>
<g><path style="opacity:0.831" fill="#edcc95" d="M 337.5,438.5 C 339.404,438.738 340.738,439.738 341.5,441.5C 339.596,441.262 338.262,440.262 337.5,438.5 Z"/></g>
<g><path style="opacity:0.118" fill="#f7d6a7" d="M 291.5,439.5 C 290.167,441.5 288.5,443.167 286.5,444.5C 286.5,444.167 286.5,443.833 286.5,443.5C 287.585,441.413 289.251,440.08 291.5,439.5 Z"/></g>
<g><path style="opacity:0.471" fill="#f1d49f" d="M 144.5,439.5 C 138.371,442.427 132.038,443.093 125.5,441.5C 131.933,441.557 138.266,440.89 144.5,439.5 Z"/></g>
<g><path style="opacity:1" fill="#e4c178" d="M 341.5,441.5 C 344.71,441.87 347.377,443.203 349.5,445.5C 346.279,445.104 343.612,443.771 341.5,441.5 Z"/></g>
<g><path style="opacity:0.961" fill="#eacd98" d="M 205.5,445.5 C 206.167,445.5 206.833,445.5 207.5,445.5C 207.5,446.5 207.5,447.5 207.5,448.5C 206.599,447.71 205.932,446.71 205.5,445.5 Z"/></g>
<g><path style="opacity:0.776" fill="#ebc382" d="M 349.5,445.5 C 356.838,446.739 364.172,446.739 371.5,445.5C 368.114,446.97 364.447,447.637 360.5,447.5C 356.553,447.637 352.886,446.97 349.5,445.5 Z"/></g>
<g><path style="opacity:0.965" fill="#e9bc73" d="M 286.5,443.5 C 286.5,443.833 286.5,444.167 286.5,444.5C 283.109,450.364 280.109,456.364 277.5,462.5C 278.818,455.887 280.818,449.554 283.5,443.5C 284.5,443.5 285.5,443.5 286.5,443.5 Z"/></g>
<g><path style="opacity:1" fill="#e7b25a" d="M 207.5,445.5 C 210.05,449.437 212.05,453.771 213.5,458.5C 214.736,459.246 216.07,459.579 217.5,459.5C 217.517,465.896 219.85,471.229 224.5,475.5C 220.232,473.067 216.732,469.734 214,465.5C 211.139,460.083 208.973,454.416 207.5,448.5C 207.5,447.5 207.5,446.5 207.5,445.5 Z"/></g>
<g><path style="opacity:1" fill="#e8bf6e" d="M 277.5,463.5 C 275.207,467.758 272.207,471.424 268.5,474.5C 268.884,472.071 269.551,469.737 270.5,467.5C 271.5,467.5 272.5,467.5 273.5,467.5C 272.872,463.509 274.205,462.176 277.5,463.5 Z"/></g>
<g><path style="opacity:0.514" fill="#f0d99f" d="M 224.5,475.5 C 226.027,475.427 227.027,476.094 227.5,477.5C 225.973,477.573 224.973,476.906 224.5,475.5 Z"/></g>
<g><path style="opacity:0.984" fill="#e7bb6d" d="M 267.5,474.5 C 254.769,483.73 241.436,484.73 227.5,477.5C 233.342,477.935 239.009,478.935 244.5,480.5C 251.776,480.036 258.109,478.703 263.5,476.5C 263.5,475.5 263.5,474.5 263.5,473.5C 265.099,473.232 266.432,473.566 267.5,474.5 Z"/></g>
</svg>
